# xmcd
#
# Track frame offsets: 
#        150
#        16327
#        41537
#
# Disc length: 940 seconds
#
# Revision: 0
# Processed by: cddbd v1.5.2PL0 Copyright (c) Steve Scherf et al.
# Submitted via: ExactAudioCopy v0.99pb5
#
DISCID=1903aa03
DTITLE=Edwin Starr - Contact
DYEAR=1999
DGENRE=Pop
TTITLE0=Contact (Radio Edit)
TTITLE1=Contact (Club Mix)
TTITLE2=Contact (Alt Club Mix)
EXTD=
EXTT0=
EXTT1=
EXTT2=
PLAYORDER=
